<svg id="Capa_1" enable-background="new 0 0 512 512" height="512" viewBox="0 0 512 512" width="512" xmlns="http://www.w3.org/2000/svg"><g><path d="m241 316v90c0 8.401-6.899 15-15 15-8.401 0-15-6.599-15-15v-90c0-8.401 6.599-15 15-15 8.101 0 15 6.599 15 15z" fill="#d5e8fe"/><path d="m226 421v-120c8.101 0 15 6.599 15 15v90c0 8.401-6.899 15-15 15z" fill="#a8d3d8"/><path d="m332 406c0 8.401-6.599 15-15 15h-181c-8.401 0-15-6.599-15-15s6.599-15 15-15h181c8.401 0 15 6.599 15 15z" fill="#edf5ff"/><path d="m332 406c0 8.401-6.599 15-15 15h-91v-30h91c8.401 0 15 6.599 15 15z" fill="#d5e8fe"/><path d="m437 31h-422c-8.401 0-15 6.599-15 15v270c0 8.401 6.599 15 15 15h422c8.401 0 15-6.599 15-15v-270c0-8.401-6.599-15-15-15z" fill="#453d83"/><path d="m452 46v270c0 8.401-6.599 15-15 15h-211v-300h211c8.401 0 15 6.599 15 15z" fill="#2d2755"/><path d="m30 61h392v240h-392z" fill="#edf5ff"/><path d="m226 61h196v240h-196z" fill="#d5e8fe"/><path d="m497 151h-180c-8.401 0-15 6.599-15 15v300c0 8.401 6.599 15 15 15h180c8.401 0 15-6.599 15-15v-300c0-8.401-6.599-15-15-15z" fill="#5f55af"/><path d="m512 166v300c0 8.401-6.599 15-15 15h-90v-330h90c8.401 0 15 6.599 15 15z" fill="#453d83"/><path d="m332 181h150v270h-150z" fill="#edf5ff"/><g fill="#d5e8fe"><path d="m407 181h75v270h-75z"/><path d="m437 226c0 8.401-6.599 15-15 15h-30c-8.401 0-15-6.599-15-15s6.599-15 15-15h30c8.401 0 15 6.599 15 15z"/><path d="m437 406c0 8.401-6.599 15-15 15h-30c-8.401 0-15-6.599-15-15s6.599-15 15-15h30c8.401 0 15 6.599 15 15z"/></g><path d="m437 406c0 8.401-6.599 15-15 15h-15v-30h15c8.401 0 15 6.599 15 15z" fill="#a8d3d8"/><path d="m422 241h-15v-30h15c8.401 0 15 6.599 15 15s-6.599 15-15 15z" fill="#a8d3d8"/></g></svg>